<svg width="100" height="100" viewBox="0 0 100 100" fill="none" xmlns="http://www.w3.org/2000/svg">
<path d="M45.75 65.728V65.978H46H52.72H52.97V65.728V64.672V64.4946L52.8026 64.436L51.8426 64.1L51.8332 64.0968L51.8236 64.0942C51.2595 63.9458 50.9372 63.6927 50.787 63.3672C50.6161 62.9969 50.522 62.4773 50.522 61.792V49.888H50.522L50.522 49.8836L50.3547 40.3524L60.1667 65.8179L60.2284 65.978H60.4H63.088H63.2634L63.3231 65.813L72.6191 40.1122L72.534 51.5181V51.52V61.936C72.534 62.5589 72.4556 63.0342 72.3132 63.3758L72.313 63.3757L72.3091 63.3866C72.2199 63.6318 71.9423 63.8836 71.3588 64.0995L70.3082 64.4338L70.134 64.4892V64.672V65.728V65.978H70.384H82.048H82.298V65.728V64.672V64.4946L82.1306 64.436L81.1744 64.1014C81.1738 64.1012 81.1732 64.101 81.1726 64.1007C80.5884 63.8852 80.2821 63.6293 80.1636 63.3685C80.0255 63.0647 79.946 62.5949 79.946 61.936L79.946 61.9316C79.914 60.1091 79.898 58.2706 79.898 56.416V56.4051V56.3943V56.3834V56.3725V56.3616V56.3507V56.3399V56.329V56.3181V56.3073V56.2964V56.2855V56.2746V56.2638V56.2529V56.242V56.2311V56.2203V56.2094V56.1985V56.1876V56.1768V56.1659V56.155V56.1441V56.1333V56.1224V56.1115V56.1006V56.0898V56.0789V56.068V56.0571V56.0463V56.0354V56.0245V56.0136V56.0028V55.9919V55.981V55.9701V55.9592V55.9484V55.9375V55.9266V55.9158V55.9049V55.894V55.8831V55.8722V55.8614V55.8505V55.8396V55.8288V55.8179V55.807V55.7961V55.7852V55.7744V55.7635V55.7526V55.7418V55.7309V55.72V55.7091V55.6982V55.6874V55.6765V55.6656V55.6548V55.6439V55.633V55.6221V55.6112V55.6004V55.5895V55.5786V55.5678V55.5569V55.546V55.5351V55.5243V55.5134V55.5025V55.4916V55.4808V55.4699V55.459V55.4481V55.4373V55.4264V55.4155V55.4046V55.3938V55.3829V55.372V55.3611V55.3503V55.3394V55.3285V55.3176V55.3068V55.2959V55.285V55.2741V55.2633V55.2524V55.2415V55.2306V55.2197V55.2089V55.198V55.1871V55.1763V55.1654V55.1545V55.1436V55.1327V55.1219V55.111V55.1001V55.0893V55.0784V55.0675V55.0566V55.0457V55.0349V55.024V55.0131V55.0023V54.9914V54.9805V54.9696V54.9587V54.9479V54.937V54.9261V54.9153V54.9044V54.8935V54.8826V54.8717V54.8609V54.85V54.8391V54.8283V54.8174V54.8065V54.7956V54.7847V54.7739V54.763V54.7521V54.7413V54.7304V54.7195V54.7086V54.6978V54.6869V54.676V54.6651V54.6543V54.6434V54.6325V54.6216V54.6108V54.5999V54.589V54.5781V54.5672V54.5564V54.5455V54.5346V54.5238V54.5129V54.502V54.4911V54.4802V54.4694V54.4585V54.4476V54.4368V54.4259V54.415V54.4041V54.3932V54.3824V54.3715V54.3606V54.3498V54.3389V54.328V54.3171V54.3062V54.2954V54.2845V54.2736V54.2628V54.2519V54.241V54.2301V54.2192V54.2084V54.1975V54.1866V54.1758V54.1649V54.154V54.1431V54.1322V54.1214V54.1105V54.0996V54.0888V54.0779V54.067V54.0561V54.0452V54.0344V54.0235V54.0126V54.0018V53.9909V53.98V53.9691V53.9583V53.9474V53.9365V53.9256V53.9147V53.9039V53.893V53.8821V53.8713V53.8604V53.8495V53.8386V53.8277V53.8169V53.806V53.7951V53.7843V53.7734V53.7625V53.7516V53.7407V53.7299V53.719V53.7081V53.6973V53.6864V53.6755V53.6646V53.6537V53.6429V53.632V53.6211V53.6103V53.5994V53.5885V53.5776V53.5667V53.5559V53.545V53.5341V53.5233V53.5124V53.5015V53.4906V53.4797V53.4689V53.458V53.4471V53.4363V53.4254V53.4145V53.4036V53.3927V53.3819V53.371V53.3601V53.3493V53.3384V53.3275V53.3166V53.3057V53.2949V53.284V53.2731V53.2622V53.2514V53.2405V53.2296V53.2188V53.2079V53.197V53.1861V53.1752V53.1644V53.1535V53.1426V53.1318V53.1209V53.11V53.0991V53.0882V53.0774V53.0665V53.0556V53.0448V53.0339V53.023V53.0121V53.0012V52.9904V52.9795V52.9686V52.9578V52.9469V52.936V52.9251V52.9142V52.9034V52.8925V52.8816V52.8708V52.8599V52.849V52.8381V52.8272V52.8164V52.8055V52.7946V52.7838V52.7729V52.762V52.7511V52.7402V52.7294V52.7185V52.7076V52.6968V52.6859V52.675V52.6641V52.6532V52.6424V52.6315V52.6206V52.6097V52.5989V52.588V52.5771V52.5662V52.5554V52.5445V52.5336V52.5227V52.5119V52.501V52.4901V52.4792V52.4684V52.4575V52.4466V52.4357V52.4249V52.414V52.4031V52.3923V52.3814V52.3705V52.3596V52.3487V52.3379V52.327V52.3161V52.3053V52.2944V52.2835V52.2726V52.2617V52.2509V52.24V52.2291V52.2183V52.2074V52.1965V52.1856V52.1747V52.1639V52.153V52.1421V52.1313V52.1204V52.1095V52.0986V52.0877V52.0769V52.066V52.0551V52.0443V52.0334V52.0225V52.0116V52.0007V51.9899V51.979V51.9681V51.9572V51.9464V51.9355V51.9246V51.9137V51.9029V51.892V51.8811V51.8702V51.8594V51.8485V51.8376V51.8267V51.8159V51.805V51.7941V51.7832V51.7724V51.7615V51.7506V51.7397V51.7289V51.718V51.7071V51.6962V51.6854V51.6745V51.6636V51.6528V51.6419V51.631V51.6201V51.6092V51.5984V51.5875V51.5766V51.5658V51.5549V51.544V51.5331V51.5222V51.5114V51.5005V51.4896V51.4788V51.4679V51.457V51.4461V51.4352V51.4244V51.4135V51.4026V51.3918V51.3809V51.37V51.3591V51.3482V51.3374V51.3265V51.3156V51.3048V51.2939V51.283V51.2721V51.2612V51.2504V51.2395V51.2286V51.2177V51.2069V51.196V51.1851V51.1742V51.1634V51.1525V51.1416V51.1307V51.1199V51.109V51.0981V51.0872V51.0764V51.0655V51.0546V51.0437V51.0329V51.022V51.0111V51.0002V50.9894V50.9785V50.9676V50.9567V50.9459V50.935V50.9241V50.9132V50.9024V50.8915V50.8806V50.8697V50.8589V50.848V48.88V48.8689V48.8579V48.8468V48.8358V48.8247V48.8136V48.8026V48.7915V48.7805V48.7694V48.7584V48.7473V48.7362V48.7252V48.7141V48.7031V48.692V48.681V48.6699V48.6589V48.6478V48.6368V48.6258V48.6147V48.6037V48.5926V48.5816V48.5705V48.5595V48.5485V48.5374V48.5264V48.5153V48.5043V48.4933V48.4822V48.4712V48.4602V48.4491V48.4381V48.4271V48.416V48.405V48.394V48.3829V48.3719V48.3609V48.3498V48.3388V48.3278V48.3168V48.3057V48.2947V48.2837V48.2727V48.2616V48.2506V48.2396V48.2286V48.2176V48.2066V48.1955V48.1845V48.1735V48.1625V48.1515V48.1405V48.1294V48.1184V48.1074V48.0964V48.0854V48.0744V48.0634V48.0524V48.0414V48.0304V48.0194V48.0083V47.9973V47.9863V47.9753V47.9643V47.9533V47.9423V47.9313V47.9203V47.9093V47.8983V47.8873V47.8763V47.8653V47.8544V47.8434V47.8324V47.8214V47.8104V47.7994V47.7884V47.7774V47.7664V47.7554V47.7444V47.7335V47.7225V47.7115V47.7005V47.6895V47.6785V47.6676V47.6566V47.6456V47.6346V47.6236V47.6127V47.6017V47.5907V47.5797V47.5687V47.5578V47.5468V47.5358V47.5249V47.5139V47.5029V47.4919V47.481V47.47V47.459V47.4481V47.4371V47.4261V47.4152V47.4042V47.3932V47.3823V47.3713V47.3603V47.3494V47.3384V47.3275V47.3165V47.3056V47.2946V47.2836V47.2727V47.2617V47.2508V47.2398V47.2289V47.2179V47.207V47.196V47.1851V47.1741V47.1632V47.1522V47.1413V47.1303V47.1194V47.1084V47.0975V47.0865V47.0756V47.0647V47.0537V47.0428V47.0318V47.0209V47.01V46.999V46.9881V46.9771V46.9662V46.9553V46.9443V46.9334V46.9225V46.9115V46.9006V46.8897V46.8788V46.8678V46.8569V46.846V46.835V46.8241V46.8132V46.8023V46.7913V46.7804V46.7695V46.7586V46.7477V46.7367V46.7258V46.7149V46.704V46.6931V46.6821V46.6712V46.6603V46.6494V46.6385V46.6276V46.6167V46.6058V46.5948V46.5839V46.573V46.5621V46.5512V46.5403V46.5294V46.5185V46.5076V46.4967V46.4858V46.4749V46.464V46.4531V46.4422V46.4313V46.4204V46.4095V46.3986V46.3877V46.3768V46.3659V46.355V46.3441V46.3332V46.3223V46.3114V46.3005V46.2896V46.2788V46.2679V46.257V46.2461V46.2352V46.2243V46.2134V46.2026V46.1917V46.1808V46.1699V46.159V46.1481V46.1373V46.1264V46.1155V46.1046V46.0938V46.0829V46.072V46.0611V46.0503V46.0394V46.0285V46.0176V46.0068V45.9959V45.985V45.9742V45.9633V45.9524V45.9416V45.9307V45.9198V45.909V45.8981V45.8872V45.8764V45.8655V45.8546V45.8438V45.8329V45.8221V45.8112V45.8004V45.7895V45.7786V45.7678V45.7569V45.7461V45.7352V45.7244V45.7135V45.7027V45.6918V45.681V45.6701V45.6593V45.6484V45.6376V45.6267V45.6159V45.6051V45.5942V45.5834V45.5725V45.5617V45.5508V45.54V45.5292V45.5183V45.5075V45.4967V45.4858V45.475V45.4641V45.4533V45.4425V45.4316V45.4208V45.41V45.3992V45.3883V45.3775V45.3667V45.3558V45.345V45.3342V45.3234V45.3125V45.3017V45.2909V45.2801V45.2693V45.2584V45.2476V45.2368V45.226V45.2152V45.2043V45.1935V45.1827V45.1719V45.1611V45.1503V45.1395V45.1286V45.1178V45.107V45.0962V45.0854V45.0746V45.0638V45.053V45.0422V45.0314V45.0206V45.0098V44.999V44.9882V44.9774V44.9666V44.9558V44.945V44.9342V44.9234V44.9126V44.9018V44.891V44.8802V44.8694V44.8586V44.8478V44.837V44.8262V44.8154V44.8046V44.7938V44.7831V44.7723V44.7615V44.7507V44.7399V44.7291V44.7183V44.7076V44.6968V44.686V44.6752V44.6644V44.6537V44.6429V44.6321V44.6213V44.6105V44.5998V44.589V44.5782V44.5675V44.5567V44.5459V44.5351V44.5244V44.5136V44.5028V44.4921V44.4813V44.4705V44.4598V44.449V44.4382V44.4275V44.4167V44.4059V44.3952V44.3844V44.3737V44.3629V44.3521V44.3414V44.3306V44.3199V44.3091V44.2983V44.2876V44.2768V44.2661V44.2553V44.2446V44.2338V44.2231V44.2123V44.2016V44.1908V44.1801V44.1693V44.1586V44.1479V44.1371V44.1264V44.1156V44.1049V44.0941V44.0834V44.0727V44.0619V44.0512V44.0404V44.0297V44.019V44.0082V43.9975V43.9868V43.976V43.9653V43.9546V43.9438V43.9331V43.9224V43.9116V43.9009V43.8902V43.8795V43.8687V43.858V43.8473V43.8366V43.8258V43.8151V43.8044V43.7937V43.783V43.7722V43.7615V43.7508V43.7401V43.7294V43.7187V43.7079V43.6972V43.6865V43.6758V43.6651V43.6544V43.6437V43.633V43.6222V43.6115V43.6008V43.5901V43.5794V43.5687V43.558V43.5473V43.5366V43.5259V43.5152V43.5045V43.4938V43.4831V43.4724V43.4617V43.451V43.4403V43.4296V43.4189V43.4082V43.3975V43.3868V43.3761V43.3654V43.3548V43.3441V43.3334V43.3227V43.312C79.898 41.4574 79.914 39.6029 79.946 37.7483L79.946 37.7483V37.744C79.946 37.1299 80.054 36.6665 80.2479 36.334L80.2481 36.334L80.2521 36.3265C80.4357 35.9855 80.787 35.7139 81.355 35.5345C81.3551 35.5345 81.3552 35.5344 81.3553 35.5344L82.1226 35.2946L82.298 35.2398V35.056V34V33.75H82.048H72.688H72.5126L72.4529 33.9149L64.1849 56.757L55.4013 33.9103L55.3397 33.75H55.168H46H45.75V34V35.056V35.2266L45.9089 35.2888L47.0129 35.7208L47.0128 35.721L47.0214 35.724C47.6286 35.9365 47.9483 36.2195 48.0707 36.5377L48.0706 36.5378L48.0732 36.5442C48.2156 36.8858 48.294 37.3611 48.294 37.984V61.744C48.294 62.422 48.1861 62.955 47.9861 63.3567C47.8022 63.6959 47.4518 63.9662 46.8864 64.1451C46.8858 64.1453 46.8853 64.1454 46.8847 64.1456L45.9282 64.4325L45.75 64.486V64.672V65.728Z" fill="#1E1E1E" stroke="#1E1E1E" stroke-width="0.5"/>
<path d="M17.75 65.728V65.978H18H30.048C32.8452 65.978 35.1739 65.721 37.0276 65.2007L37.0276 65.2007L37.0315 65.1996C38.8747 64.6498 40.3475 63.9336 41.4369 63.0426C42.5485 62.1596 43.3454 61.1851 43.8131 60.1162L43.8141 60.1136C44.2737 59.0305 44.506 57.9574 44.506 56.896C44.506 54.7442 43.6913 52.9179 42.0731 51.4319C40.6711 50.1443 38.539 49.2821 35.7075 48.8214C38.0487 48.2322 39.7703 47.3714 40.8394 46.2179L40.8414 46.2157C42.0949 44.8302 42.73 43.2677 42.73 41.536C42.73 39.2832 41.8309 37.421 40.0469 35.967C38.2516 34.4716 35.396 33.75 31.536 33.75H18H17.75V34V35.008V35.1918L17.9254 35.2466L18.6928 35.4864C19.3683 35.7015 19.7601 35.9927 19.9399 36.3265L19.9398 36.3266L19.9441 36.334C20.1349 36.6611 20.246 37.1841 20.246 37.936V37.9469V37.9577V37.9686V37.9795V37.9904V38.0012V38.0121V38.023V38.0339V38.0447V38.0556V38.0665V38.0774V38.0882V38.0991V38.11V38.1209V38.1317V38.1426V38.1535V38.1644V38.1752V38.1861V38.197V38.2079V38.2187V38.2296V38.2405V38.2514V38.2622V38.2731V38.284V38.2949V38.3057V38.3166V38.3275V38.3384V38.3492V38.3601V38.371V38.3819V38.3927V38.4036V38.4145V38.4254V38.4362V38.4471V38.458V38.4689V38.4797V38.4906V38.5015V38.5124V38.5232V38.5341V38.545V38.5559V38.5667V38.5776V38.5885V38.5994V38.6102V38.6211V38.632V38.6429V38.6537V38.6646V38.6755V38.6864V38.6972V38.7081V38.719V38.7299V38.7407V38.7516V38.7625V38.7734V38.7842V38.7951V38.806V38.8169V38.8277V38.8386V38.8495V38.8604V38.8712V38.8821V38.893V38.9039V38.9147V38.9256V38.9365V38.9474V38.9582V38.9691V38.98V38.9909V39.0017V39.0126V39.0235V39.0344V39.0452V39.0561V39.067V39.0779V39.0887V39.0996V39.1105V39.1214V39.1322V39.1431V39.154V39.1649V39.1757V39.1866V39.1975V39.2084V39.2192V39.2301V39.241V39.2519V39.2627V39.2736V39.2845V39.2954V39.3062V39.3171V39.328V39.3389V39.3497V39.3606V39.3715V39.3824V39.3932V39.4041V39.415V39.4259V39.4367V39.4476V39.4585V39.4694V39.4802V39.4911V39.502V39.5129V39.5237V39.5346V39.5455V39.5564V39.5672V39.5781V39.589V39.5999V39.6107V39.6216V39.6325V39.6434V39.6542V39.6651V39.676V39.6869V39.6977V39.7086V39.7195V39.7304V39.7412V39.7521V39.763V39.7739V39.7847V39.7956V39.8065V39.8174V39.8282V39.8391V39.85V39.8609V39.8717V39.8826V39.8935V39.9044V39.9152V39.9261V39.937V39.9479V39.9587V39.9696V39.9805V39.9914V40.0022V40.0131V40.024V40.0349V40.0457V40.0566V40.0675V40.0784V40.0892V40.1001V40.111V40.1219V40.1327V40.1436V40.1545V40.1654V40.1762V40.1871V40.198V40.2089V40.2197V40.2306V40.2415V40.2524V40.2632V40.2741V40.285V40.2959V40.3067V40.3176V40.3285V40.3394V40.3502V40.3611V40.372V40.3829V40.3937V40.4046V40.4155V40.4264V40.4372V40.4481V40.459V40.4699V40.4807V40.4916V40.5025V40.5134V40.5242V40.5351V40.546V40.5569V40.5677V40.5786V40.5895V40.6004V40.6112V40.6221V40.633V40.6439V40.6547V40.6656V40.6765V40.6874V40.6982V40.7091V40.72V40.7309V40.7417V40.7526V40.7635V40.7744V40.7852V40.7961V40.807V40.8179V40.8287V40.8396V40.8505V40.8614V40.8722V40.8831V40.894V40.9049V40.9157V40.9266V40.9375V40.9484V40.9592V40.9701V40.981V40.9919V41.0027V41.0136V41.0245V41.0354V41.0462V41.0571V41.068V41.0789V41.0897V41.1006V41.1115V41.1224V41.1332V41.1441V41.155V41.1659V41.1767V41.1876V41.1985V41.2094V41.2202V41.2311V41.242V41.2529V41.2637V41.2746V41.2855V41.2964V41.3072V41.3181V41.329V41.3399V41.3507V41.3616V41.3725V41.3834V41.3942V41.4051V41.416V41.4269V41.4377V41.4486V41.4595V41.4704V41.4812V41.4921V41.503V41.5139V41.5247V41.5356V41.5465V41.5574V41.5682V41.5791V41.59V41.6009V41.6117V41.6226V41.6335V41.6444V41.6552V41.6661V41.677V41.6879V41.6987V41.7096V41.7205V41.7314V41.7422V41.7531V41.764V41.7749V41.7857V41.7966V41.8075V41.8184V41.8292V41.8401V41.851V41.8619V41.8727V41.8836V41.8945V41.9054V41.9162V41.9271V41.938V41.9489V41.9597V41.9706V41.9815V41.9924V42.0032V42.0141V42.025V42.0359V42.0467V42.0576V42.0685V42.0794V42.0903V42.1011V42.112V42.1229V42.1337V42.1446V42.1555V42.1664V42.1772V42.1881V42.199V42.2099V42.2207V42.2316V42.2425V42.2534V42.2642V42.2751V42.286V42.2969V42.3077V42.3186V42.3295V42.3404V42.3512V42.3621V42.373V42.3839V42.3947V42.4056V42.4165V42.4274V42.4382V42.4491V42.46V42.4709V42.4817V42.4926V42.5035V42.5144V42.5252V42.5361V42.547V42.5579V42.5687V42.5796V42.5905V42.6014V42.6122V42.6231V42.634V42.6449V42.6557V42.6666V42.6775V42.6884V42.6992V42.7101V42.721V42.7319V42.7427V42.7536V42.7645V42.7754V42.7863V42.7971V42.808V42.8189V42.8298V42.8406V42.8515V42.8624V42.8733V42.8841V42.895V42.9059V42.9167V42.9276V42.9385V42.9494V42.9602V42.9711V42.982V42.9929V43.0037V43.0146V43.0255V43.0364V43.0472V43.0581V43.069V43.0799V43.0907V43.1016V43.1125V43.1234V43.1342V43.1451V43.156V43.1669V43.1777V43.1886V43.1995V43.2104V43.2212V43.2321V43.243V43.2539V43.2647V43.2756V43.2865V43.2974V43.3082V43.3191V43.33V43.3409V43.3517V43.3626V43.3735V43.3844V43.3952V43.4061V43.417V43.4279V43.4387V43.4496V43.4605V43.4714V43.4822V43.4931V43.504H20.246L20.246 43.5084C20.278 45.3309 20.294 47.1694 20.294 49.024V50.752V50.7629V50.7738V50.7846V50.7955V50.8064V50.8173V50.8281V50.839V50.8499V50.8608V50.8716V50.8825V50.8934V50.9043V50.9151V50.926V50.9369V50.9478V50.9586V50.9695V50.9804V50.9913V51.0021V51.013V51.0239V51.0347V51.0456V51.0565V51.0674V51.0783V51.0891V51.1V51.1109V51.1217V51.1326V51.1435V51.1544V51.1653V51.1761V51.187V51.1979V51.2088V51.2196V51.2305V51.2414V51.2523V51.2631V51.274V51.2849V51.2958V51.3066V51.3175V51.3284V51.3393V51.3501V51.361V51.3719V51.3828V51.3936V51.4045V51.4154V51.4263V51.4371V51.448V51.4589V51.4698V51.4806V51.4915V51.5024V51.5133V51.5241V51.535V51.5459V51.5568V51.5676V51.5785V51.5894V51.6003V51.6111V51.622V51.6329V51.6438V51.6546V51.6655V51.6764V51.6873V51.6981V51.709V51.7199V51.7308V51.7416V51.7525V51.7634V51.7743V51.7851V51.796V51.8069V51.8178V51.8286V51.8395V51.8504V51.8612V51.8721V51.883V51.8939V51.9048V51.9156V51.9265V51.9374V51.9482V51.9591V51.97V51.9809V51.9918V52.0026V52.0135V52.0244V52.0352V52.0461V52.057V52.0679V52.0788V52.0896V52.1005V52.1114V52.1223V52.1331V52.144V52.1549V52.1658V52.1766V52.1875V52.1984V52.2093V52.2201V52.231V52.2419V52.2528V52.2636V52.2745V52.2854V52.2963V52.3071V52.318V52.3289V52.3398V52.3506V52.3615V52.3724V52.3833V52.3941V52.405V52.4159V52.4268V52.4376V52.4485V52.4594V52.4703V52.4811V52.492V52.5029V52.5138V52.5246V52.5355V52.5464V52.5573V52.5681V52.579V52.5899V52.6007V52.6116V52.6225V52.6334V52.6443V52.6551V52.666V52.6769V52.6877V52.6986V52.7095V52.7204V52.7313V52.7421V52.753V52.7639V52.7747V52.7856V52.7965V52.8074V52.8183V52.8291V52.84V52.8509V52.8617V52.8726V52.8835V52.8944V52.9053V52.9161V52.927V52.9379V52.9487V52.9596V52.9705V52.9814V52.9923V53.0031V53.014V53.0249V53.0358V53.0466V53.0575V53.0684V53.0793V53.0901V53.101V53.1119V53.1228V53.1336V53.1445V53.1554V53.1663V53.1771V53.188V53.1989V53.2098V53.2206V53.2315V53.2424V53.2533V53.2641V53.275V53.2859V53.2968V53.3076V53.3185V53.3294V53.3403V53.3511V53.362V53.3729V53.3838V53.3946V53.4055V53.4164V53.4272V53.4381V53.449V53.4599V53.4708V53.4816V53.4925V53.5034V53.5142V53.5251V53.536V53.5469V53.5578V53.5686V53.5795V53.5904V53.6012V53.6121V53.623V53.6339V53.6448V53.6556V53.6665V53.6774V53.6882V53.6991V53.71V53.7209V53.7318V53.7426V53.7535V53.7644V53.7752V53.7861V53.797V53.8079V53.8188V53.8296V53.8405V53.8514V53.8622V53.8731V53.884V53.8949V53.9058V53.9166V53.9275V53.9384V53.9492V53.9601V53.971V53.9819V53.9928V54.0036V54.0145V54.0254V54.0362V54.0471V54.058V54.0689V54.0798V54.0906V54.1015V54.1124V54.1233V54.1341V54.145V54.1559V54.1667V54.1776V54.1885V54.1994V54.2103V54.2211V54.232V54.2429V54.2537V54.2646V54.2755V54.2864V54.2973V54.3081V54.319V54.3299V54.3407V54.3516V54.3625V54.3734V54.3843V54.3951V54.406V54.4169V54.4277V54.4386V54.4495V54.4604V54.4713V54.4821V54.493V54.5039V54.5147V54.5256V54.5365V54.5474V54.5583V54.5691V54.58V54.5909V54.6017V54.6126V54.6235V54.6344V54.6453V54.6561V54.667V54.6779V54.6887V54.6996V54.7105V54.7214V54.7323V54.7431V54.754V54.7649V54.7757V54.7866V54.7975V54.8084V54.8193V54.8301V54.841V54.8519V54.8627V54.8736V54.8845V54.8954V54.9062V54.9171V54.928V54.9389V54.9497V54.9606V54.9715V54.9824V54.9932V55.0041V55.015V55.0259V55.0368V55.0476V55.0585V55.0694V55.0802V55.0911V55.102V55.1129V55.1238V55.1346V55.1455V55.1564V55.1672V55.1781V55.189V55.1999V55.2108V55.2216V55.2325V55.2434V55.2542V55.2651V55.276V55.2869V55.2978V55.3086V55.3195V55.3304V55.3412V55.3521V55.363V55.3739V55.3848V55.3956V55.4065V55.4174V55.4282V55.4391V55.45V55.4609V55.4718V55.4826V55.4935V55.5044V55.5152V55.5261V55.537V55.5479V55.5588V55.5696V55.5805V55.5914V55.6022V55.6131V55.624V55.6349V55.6458V55.6566V55.6675V55.6784V55.6892V55.7001V55.711V55.7219V55.7327V55.7436V55.7545V55.7654V55.7762V55.7871V55.798V55.8089V55.8197V55.8306V55.8415V55.8524V55.8632V55.8741V55.885V55.8959V55.9067V55.9176V55.9285V55.9394V55.9503V55.9611V55.972V55.9829V55.9937V56.0046V56.0155V56.0264V56.0373V56.0481V56.059V56.0699V56.0807V56.0916V56.1025V56.1134V56.1243V56.1351V56.146V56.1569V56.1677V56.1786V56.1895V56.2004V56.2113V56.2221V56.233V56.2439V56.2547V56.2656V56.2765V56.2874V56.2983V56.3091V56.32C20.294 58.1425 20.278 59.9651 20.246 61.7876L20.246 61.7876V61.792C20.246 62.469 20.1224 62.9781 19.8991 63.341L19.8953 63.3471L19.8919 63.3535C19.7086 63.6938 19.3259 63.9988 18.6861 64.2437L17.9254 64.4814L17.75 64.5362V64.72V65.728ZM35.2525 51.7019L35.2524 51.702L35.2579 51.7069C36.3305 52.6603 36.902 54.3471 36.902 56.848C36.902 59.4422 36.3157 61.2668 35.1992 62.3832C34.0792 63.5032 32.3626 64.086 30 64.086H27.61V50.186H29.856C32.4249 50.186 34.2018 50.7113 35.2525 51.7019ZM29.616 48.294H27.61V35.642H30.24C32.1208 35.642 33.4475 36.1276 34.2785 37.0476C35.1098 37.968 35.558 39.6154 35.558 42.064C35.558 44.4086 35.0649 46.0056 34.1432 46.9272C33.2517 47.8188 31.7641 48.294 29.616 48.294Z" fill="#4238B9" stroke="#4238B9" stroke-width="0.5"/>
</svg>
