<svg width="66" height="34" viewBox="0 0 66 34" fill="none" xmlns="http://www.w3.org/2000/svg">
<path d="M28.75 32.728V32.978H29H35.72H35.97V32.728V31.672V31.4946L35.8026 31.436L34.8426 31.1L34.8332 31.0968L34.8236 31.0942C34.2595 30.9458 33.9372 30.6927 33.787 30.3672C33.6161 29.9969 33.522 29.4773 33.522 28.792V16.888H33.522L33.522 16.8836L33.3547 7.3524L43.1667 32.8179L43.2284 32.978H43.4H46.088H46.2634L46.3231 32.813L55.6191 7.11224L55.534 18.5181V18.52V28.936C55.534 29.5589 55.4556 30.0342 55.3132 30.3758L55.313 30.3757L55.3091 30.3866C55.2199 30.6318 54.9423 30.8836 54.3588 31.0995L53.3082 31.4338L53.134 31.4892V31.672V32.728V32.978H53.384H65.048H65.298V32.728V31.672V31.4946L65.1306 31.436L64.1744 31.1014C64.1738 31.1012 64.1732 31.101 64.1726 31.1007C63.5884 30.8852 63.2821 30.6293 63.1636 30.3685C63.0255 30.0647 62.946 29.5949 62.946 28.936L62.946 28.9316C62.914 27.1091 62.898 25.2706 62.898 23.416V23.4051V23.3943V23.3834V23.3725V23.3616V23.3507V23.3399V23.329V23.3181V23.3073V23.2964V23.2855V23.2746V23.2638V23.2529V23.242V23.2311V23.2203V23.2094V23.1985V23.1876V23.1768V23.1659V23.155V23.1441V23.1333V23.1224V23.1115V23.1006V23.0898V23.0789V23.068V23.0571V23.0463V23.0354V23.0245V23.0136V23.0028V22.9919V22.981V22.9701V22.9592V22.9484V22.9375V22.9266V22.9158V22.9049V22.894V22.8831V22.8722V22.8614V22.8505V22.8396V22.8288V22.8179V22.807V22.7961V22.7852V22.7744V22.7635V22.7526V22.7418V22.7309V22.72V22.7091V22.6982V22.6874V22.6765V22.6656V22.6548V22.6439V22.633V22.6221V22.6112V22.6004V22.5895V22.5786V22.5678V22.5569V22.546V22.5351V22.5243V22.5134V22.5025V22.4916V22.4808V22.4699V22.459V22.4481V22.4373V22.4264V22.4155V22.4046V22.3938V22.3829V22.372V22.3611V22.3503V22.3394V22.3285V22.3176V22.3068V22.2959V22.285V22.2741V22.2633V22.2524V22.2415V22.2306V22.2197V22.2089V22.198V22.1871V22.1763V22.1654V22.1545V22.1436V22.1327V22.1219V22.111V22.1001V22.0893V22.0784V22.0675V22.0566V22.0457V22.0349V22.024V22.0131V22.0023V21.9914V21.9805V21.9696V21.9587V21.9479V21.937V21.9261V21.9153V21.9044V21.8935V21.8826V21.8717V21.8609V21.85V21.8391V21.8283V21.8174V21.8065V21.7956V21.7847V21.7739V21.763V21.7521V21.7413V21.7304V21.7195V21.7086V21.6978V21.6869V21.676V21.6651V21.6543V21.6434V21.6325V21.6216V21.6108V21.5999V21.589V21.5781V21.5672V21.5564V21.5455V21.5346V21.5238V21.5129V21.502V21.4911V21.4802V21.4694V21.4585V21.4476V21.4368V21.4259V21.415V21.4041V21.3932V21.3824V21.3715V21.3606V21.3498V21.3389V21.328V21.3171V21.3062V21.2954V21.2845V21.2736V21.2628V21.2519V21.241V21.2301V21.2192V21.2084V21.1975V21.1866V21.1758V21.1649V21.154V21.1431V21.1322V21.1214V21.1105V21.0996V21.0888V21.0779V21.067V21.0561V21.0452V21.0344V21.0235V21.0126V21.0018V20.9909V20.98V20.9691V20.9583V20.9474V20.9365V20.9256V20.9147V20.9039V20.893V20.8821V20.8713V20.8604V20.8495V20.8386V20.8277V20.8169V20.806V20.7951V20.7843V20.7734V20.7625V20.7516V20.7407V20.7299V20.719V20.7081V20.6973V20.6864V20.6755V20.6646V20.6537V20.6429V20.632V20.6211V20.6103V20.5994V20.5885V20.5776V20.5667V20.5559V20.545V20.5341V20.5233V20.5124V20.5015V20.4906V20.4797V20.4689V20.458V20.4471V20.4363V20.4254V20.4145V20.4036V20.3927V20.3819V20.371V20.3601V20.3493V20.3384V20.3275V20.3166V20.3057V20.2949V20.284V20.2731V20.2622V20.2514V20.2405V20.2296V20.2188V20.2079V20.197V20.1861V20.1752V20.1644V20.1535V20.1426V20.1318V20.1209V20.11V20.0991V20.0882V20.0774V20.0665V20.0556V20.0448V20.0339V20.023V20.0121V20.0012V19.9904V19.9795V19.9686V19.9578V19.9469V19.936V19.9251V19.9142V19.9034V19.8925V19.8816V19.8708V19.8599V19.849V19.8381V19.8272V19.8164V19.8055V19.7946V19.7838V19.7729V19.762V19.7511V19.7402V19.7294V19.7185V19.7076V19.6968V19.6859V19.675V19.6641V19.6532V19.6424V19.6315V19.6206V19.6097V19.5989V19.588V19.5771V19.5662V19.5554V19.5445V19.5336V19.5227V19.5119V19.501V19.4901V19.4792V19.4684V19.4575V19.4466V19.4357V19.4249V19.414V19.4031V19.3923V19.3814V19.3705V19.3596V19.3487V19.3379V19.327V19.3161V19.3053V19.2944V19.2835V19.2726V19.2617V19.2509V19.24V19.2291V19.2183V19.2074V19.1965V19.1856V19.1747V19.1639V19.153V19.1421V19.1313V19.1204V19.1095V19.0986V19.0877V19.0769V19.066V19.0551V19.0443V19.0334V19.0225V19.0116V19.0007V18.9899V18.979V18.9681V18.9572V18.9464V18.9355V18.9246V18.9137V18.9029V18.892V18.8811V18.8702V18.8594V18.8485V18.8376V18.8267V18.8159V18.805V18.7941V18.7832V18.7724V18.7615V18.7506V18.7397V18.7289V18.718V18.7071V18.6962V18.6854V18.6745V18.6636V18.6528V18.6419V18.631V18.6201V18.6092V18.5984V18.5875V18.5766V18.5658V18.5549V18.544V18.5331V18.5222V18.5114V18.5005V18.4896V18.4788V18.4679V18.457V18.4461V18.4352V18.4244V18.4135V18.4026V18.3918V18.3809V18.37V18.3591V18.3482V18.3374V18.3265V18.3156V18.3048V18.2939V18.283V18.2721V18.2612V18.2504V18.2395V18.2286V18.2177V18.2069V18.196V18.1851V18.1742V18.1634V18.1525V18.1416V18.1307V18.1199V18.109V18.0981V18.0872V18.0764V18.0655V18.0546V18.0437V18.0329V18.022V18.0111V18.0002V17.9894V17.9785V17.9676V17.9567V17.9459V17.935V17.9241V17.9132V17.9024V17.8915V17.8806V17.8697V17.8589V17.848V15.88V15.8689V15.8579V15.8468V15.8358V15.8247V15.8136V15.8026V15.7915V15.7805V15.7694V15.7584V15.7473V15.7362V15.7252V15.7141V15.7031V15.692V15.681V15.6699V15.6589V15.6478V15.6368V15.6258V15.6147V15.6037V15.5926V15.5816V15.5705V15.5595V15.5485V15.5374V15.5264V15.5153V15.5043V15.4933V15.4822V15.4712V15.4602V15.4491V15.4381V15.4271V15.416V15.405V15.394V15.3829V15.3719V15.3609V15.3498V15.3388V15.3278V15.3168V15.3057V15.2947V15.2837V15.2727V15.2616V15.2506V15.2396V15.2286V15.2176V15.2066V15.1955V15.1845V15.1735V15.1625V15.1515V15.1405V15.1294V15.1184V15.1074V15.0964V15.0854V15.0744V15.0634V15.0524V15.0414V15.0304V15.0194V15.0083V14.9973V14.9863V14.9753V14.9643V14.9533V14.9423V14.9313V14.9203V14.9093V14.8983V14.8873V14.8763V14.8653V14.8544V14.8434V14.8324V14.8214V14.8104V14.7994V14.7884V14.7774V14.7664V14.7554V14.7444V14.7335V14.7225V14.7115V14.7005V14.6895V14.6785V14.6676V14.6566V14.6456V14.6346V14.6236V14.6127V14.6017V14.5907V14.5797V14.5687V14.5578V14.5468V14.5358V14.5249V14.5139V14.5029V14.4919V14.481V14.47V14.459V14.4481V14.4371V14.4261V14.4152V14.4042V14.3932V14.3823V14.3713V14.3603V14.3494V14.3384V14.3275V14.3165V14.3056V14.2946V14.2836V14.2727V14.2617V14.2508V14.2398V14.2289V14.2179V14.207V14.196V14.1851V14.1741V14.1632V14.1522V14.1413V14.1303V14.1194V14.1084V14.0975V14.0865V14.0756V14.0647V14.0537V14.0428V14.0318V14.0209V14.01V13.999V13.9881V13.9771V13.9662V13.9553V13.9443V13.9334V13.9225V13.9115V13.9006V13.8897V13.8788V13.8678V13.8569V13.846V13.835V13.8241V13.8132V13.8023V13.7913V13.7804V13.7695V13.7586V13.7477V13.7367V13.7258V13.7149V13.704V13.6931V13.6821V13.6712V13.6603V13.6494V13.6385V13.6276V13.6167V13.6058V13.5948V13.5839V13.573V13.5621V13.5512V13.5403V13.5294V13.5185V13.5076V13.4967V13.4858V13.4749V13.464V13.4531V13.4422V13.4313V13.4204V13.4095V13.3986V13.3877V13.3768V13.3659V13.355V13.3441V13.3332V13.3223V13.3114V13.3005V13.2896V13.2788V13.2679V13.257V13.2461V13.2352V13.2243V13.2134V13.2026V13.1917V13.1808V13.1699V13.159V13.1481V13.1373V13.1264V13.1155V13.1046V13.0938V13.0829V13.072V13.0611V13.0503V13.0394V13.0285V13.0176V13.0068V12.9959V12.985V12.9742V12.9633V12.9524V12.9416V12.9307V12.9198V12.909V12.8981V12.8872V12.8764V12.8655V12.8546V12.8438V12.8329V12.8221V12.8112V12.8004V12.7895V12.7786V12.7678V12.7569V12.7461V12.7352V12.7244V12.7135V12.7027V12.6918V12.681V12.6701V12.6593V12.6484V12.6376V12.6267V12.6159V12.6051V12.5942V12.5834V12.5725V12.5617V12.5508V12.54V12.5292V12.5183V12.5075V12.4967V12.4858V12.475V12.4641V12.4533V12.4425V12.4316V12.4208V12.41V12.3992V12.3883V12.3775V12.3667V12.3558V12.345V12.3342V12.3234V12.3125V12.3017V12.2909V12.2801V12.2693V12.2584V12.2476V12.2368V12.226V12.2152V12.2043V12.1935V12.1827V12.1719V12.1611V12.1503V12.1395V12.1286V12.1178V12.107V12.0962V12.0854V12.0746V12.0638V12.053V12.0422V12.0314V12.0206V12.0098V11.999V11.9882V11.9774V11.9666V11.9558V11.945V11.9342V11.9234V11.9126V11.9018V11.891V11.8802V11.8694V11.8586V11.8478V11.837V11.8262V11.8154V11.8046V11.7938V11.7831V11.7723V11.7615V11.7507V11.7399V11.7291V11.7183V11.7076V11.6968V11.686V11.6752V11.6644V11.6537V11.6429V11.6321V11.6213V11.6105V11.5998V11.589V11.5782V11.5675V11.5567V11.5459V11.5351V11.5244V11.5136V11.5028V11.4921V11.4813V11.4705V11.4598V11.449V11.4382V11.4275V11.4167V11.4059V11.3952V11.3844V11.3737V11.3629V11.3521V11.3414V11.3306V11.3199V11.3091V11.2983V11.2876V11.2768V11.2661V11.2553V11.2446V11.2338V11.2231V11.2123V11.2016V11.1908V11.1801V11.1693V11.1586V11.1479V11.1371V11.1264V11.1156V11.1049V11.0941V11.0834V11.0727V11.0619V11.0512V11.0404V11.0297V11.019V11.0082V10.9975V10.9868V10.976V10.9653V10.9546V10.9438V10.9331V10.9224V10.9116V10.9009V10.8902V10.8795V10.8687V10.858V10.8473V10.8366V10.8258V10.8151V10.8044V10.7937V10.783V10.7722V10.7615V10.7508V10.7401V10.7294V10.7187V10.7079V10.6972V10.6865V10.6758V10.6651V10.6544V10.6437V10.633V10.6222V10.6115V10.6008V10.5901V10.5794V10.5687V10.558V10.5473V10.5366V10.5259V10.5152V10.5045V10.4938V10.4831V10.4724V10.4617V10.451V10.4403V10.4296V10.4189V10.4082V10.3975V10.3868V10.3761V10.3654V10.3548V10.3441V10.3334V10.3227V10.312C62.898 8.45744 62.914 6.60287 62.946 4.74831L62.946 4.74831V4.744C62.946 4.12995 63.054 3.66653 63.2479 3.33397L63.2481 3.33404L63.2521 3.32653C63.4357 2.98553 63.787 2.71392 64.355 2.5345C64.3551 2.53446 64.3552 2.53443 64.3553 2.5344L65.1226 2.29462L65.298 2.23979V2.056V1V0.75H65.048H55.688H55.5126L55.4529 0.914912L47.1849 23.757L38.4013 0.910287L38.3397 0.75H38.168H29H28.75V1V2.056V2.22663L28.9089 2.28881L30.0129 2.72081L30.0128 2.72096L30.0214 2.72396C30.6286 2.93647 30.9483 3.21954 31.0707 3.53774L31.0706 3.53778L31.0732 3.54415C31.2156 3.88579 31.294 4.36107 31.294 4.984V28.744C31.294 29.422 31.1861 29.955 30.9861 30.3567C30.8022 30.6959 30.4518 30.9662 29.8864 31.1451C29.8858 31.1453 29.8853 31.1454 29.8847 31.1456L28.9282 31.4325L28.75 31.486V31.672V32.728Z" fill="#1E1E1E" stroke="#1E1E1E" stroke-width="0.5"/>
<path d="M0.75 32.728V32.978H1H13.048C15.8452 32.978 18.1739 32.721 20.0276 32.2007L20.0276 32.2007L20.0315 32.1996C21.8747 31.6498 23.3475 30.9336 24.4369 30.0426C25.5485 29.1596 26.3454 28.1851 26.8131 27.1162L26.8141 27.1136C27.2737 26.0305 27.506 24.9574 27.506 23.896C27.506 21.7442 26.6913 19.9179 25.0731 18.4319C23.6711 17.1443 21.539 16.2821 18.7075 15.8214C21.0487 15.2322 22.7703 14.3714 23.8394 13.2179L23.8414 13.2157C25.0949 11.8302 25.73 10.2677 25.73 8.536C25.73 6.28317 24.8309 4.42104 23.0469 2.96702C21.2516 1.47162 18.396 0.75 14.536 0.75H1H0.75V1V2.008V2.1918L0.925431 2.24662L1.69282 2.48643C2.36831 2.70146 2.76014 2.99271 2.93988 3.32652L2.93975 3.32659L2.94406 3.33397C3.1349 3.66114 3.246 4.18412 3.246 4.936V4.94687V4.95775V4.96862V4.9795V4.99037V5.00125V5.01212V5.023V5.03387V5.04475V5.05562V5.0665V5.07737V5.08825V5.09912V5.11V5.12087V5.13175V5.14262V5.1535V5.16437V5.17525V5.18612V5.197V5.20787V5.21875V5.22962V5.2405V5.25137V5.26225V5.27312V5.284V5.29487V5.30575V5.31662V5.3275V5.33837V5.34925V5.36012V5.371V5.38187V5.39275V5.40362V5.4145V5.42537V5.43625V5.44712V5.458V5.46887V5.47975V5.49062V5.5015V5.51237V5.52325V5.53412V5.545V5.55587V5.56675V5.57762V5.5885V5.59937V5.61025V5.62112V5.632V5.64287V5.65375V5.66462V5.6755V5.68637V5.69725V5.70812V5.719V5.72987V5.74075V5.75162V5.7625V5.77337V5.78425V5.79512V5.806V5.81687V5.82775V5.83862V5.8495V5.86037V5.87125V5.88212V5.893V5.90387V5.91475V5.92562V5.9365V5.94737V5.95825V5.96912V5.98V5.99087V6.00175V6.01262V6.0235V6.03437V6.04525V6.05612V6.067V6.07787V6.08875V6.09962V6.1105V6.12137V6.13225V6.14312V6.154V6.16487V6.17575V6.18662V6.1975V6.20837V6.21925V6.23012V6.241V6.25187V6.26275V6.27362V6.2845V6.29537V6.30625V6.31712V6.328V6.33887V6.34975V6.36062V6.3715V6.38237V6.39325V6.40412V6.415V6.42587V6.43675V6.44762V6.4585V6.46937V6.48025V6.49112V6.502V6.51287V6.52375V6.53462V6.5455V6.55637V6.56725V6.57812V6.589V6.59987V6.61075V6.62162V6.6325V6.64337V6.65425V6.66512V6.676V6.68687V6.69775V6.70862V6.7195V6.73037V6.74125V6.75212V6.763V6.77387V6.78475V6.79562V6.8065V6.81737V6.82825V6.83912V6.85V6.86087V6.87175V6.88262V6.8935V6.90437V6.91525V6.92612V6.937V6.94787V6.95875V6.96962V6.9805V6.99137V7.00225V7.01312V7.024V7.03487V7.04575V7.05662V7.0675V7.07837V7.08925V7.10012V7.111V7.12187V7.13275V7.14362V7.1545V7.16537V7.17625V7.18712V7.198V7.20887V7.21975V7.23062V7.2415V7.25237V7.26325V7.27412V7.285V7.29587V7.30675V7.31762V7.3285V7.33937V7.35025V7.36112V7.372V7.38287V7.39375V7.40462V7.4155V7.42637V7.43725V7.44812V7.459V7.46987V7.48075V7.49162V7.5025V7.51337V7.52425V7.53512V7.546V7.55687V7.56775V7.57862V7.5895V7.60037V7.61125V7.62212V7.633V7.64387V7.65475V7.66562V7.6765V7.68737V7.69825V7.70912V7.72V7.73087V7.74175V7.75262V7.7635V7.77437V7.78525V7.79612V7.807V7.81787V7.82875V7.83962V7.8505V7.86137V7.87225V7.88312V7.894V7.90487V7.91575V7.92662V7.9375V7.94837V7.95925V7.97012V7.981V7.99187V8.00275V8.01362V8.0245V8.03537V8.04625V8.05712V8.068V8.07887V8.08975V8.10062V8.1115V8.12237V8.13325V8.14412V8.155V8.16587V8.17675V8.18762V8.1985V8.20937V8.22025V8.23112V8.242V8.25287V8.26375V8.27462V8.2855V8.29637V8.30725V8.31812V8.329V8.33987V8.35075V8.36162V8.3725V8.38337V8.39425V8.40512V8.416V8.42687V8.43775V8.44862V8.4595V8.47037V8.48125V8.49212V8.503V8.51387V8.52475V8.53562V8.5465V8.55737V8.56825V8.57912V8.59V8.60087V8.61175V8.62262V8.6335V8.64437V8.65525V8.66612V8.677V8.68787V8.69875V8.70962V8.7205V8.73137V8.74225V8.75312V8.764V8.77487V8.78575V8.79662V8.8075V8.81837V8.82925V8.84012V8.851V8.86187V8.87275V8.88362V8.8945V8.90537V8.91625V8.92712V8.938V8.94887V8.95975V8.97062V8.9815V8.99237V9.00325V9.01412V9.025V9.03587V9.04675V9.05762V9.0685V9.07937V9.09025V9.10112V9.112V9.12287V9.13375V9.14462V9.1555V9.16637V9.17725V9.18812V9.199V9.20987V9.22075V9.23162V9.2425V9.25338V9.26425V9.27512V9.286V9.29688V9.30775V9.31862V9.3295V9.34037V9.35125V9.36212V9.373V9.38387V9.39475V9.40562V9.4165V9.42737V9.43825V9.44912V9.46V9.47087V9.48175V9.49262V9.5035V9.51437V9.52525V9.53612V9.547V9.55787V9.56875V9.57963V9.5905V9.60137V9.61225V9.62313V9.634V9.64487V9.65575V9.66663V9.6775V9.68837V9.69925V9.71012V9.721V9.73187V9.74275V9.75362V9.7645V9.77537V9.78625V9.79712V9.808V9.81887V9.82975V9.84062V9.8515V9.86237V9.87325V9.88412V9.895V9.90587V9.91675V9.92762V9.9385V9.94938V9.96025V9.97112V9.982V9.99288V10.0037V10.0146V10.0255V10.0364V10.0472V10.0581V10.069V10.0799V10.0907V10.1016V10.1125V10.1234V10.1342V10.1451V10.156V10.1669V10.1777V10.1886V10.1995V10.2104V10.2212V10.2321V10.243V10.2539V10.2647V10.2756V10.2865V10.2974V10.3082V10.3191V10.33V10.3409V10.3517V10.3626V10.3735V10.3844V10.3952V10.4061V10.417V10.4279V10.4387V10.4496V10.4605V10.4714V10.4822V10.4931V10.504H3.24596L3.24604 10.5084C3.27801 12.3309 3.294 14.1694 3.294 16.024V17.752V17.7629V17.7738V17.7846V17.7955V17.8064V17.8173V17.8281V17.839V17.8499V17.8608V17.8716V17.8825V17.8934V17.9043V17.9151V17.926V17.9369V17.9478V17.9586V17.9695V17.9804V17.9913V18.0021V18.013V18.0239V18.0347V18.0456V18.0565V18.0674V18.0783V18.0891V18.1V18.1109V18.1217V18.1326V18.1435V18.1544V18.1653V18.1761V18.187V18.1979V18.2088V18.2196V18.2305V18.2414V18.2523V18.2631V18.274V18.2849V18.2958V18.3066V18.3175V18.3284V18.3393V18.3501V18.361V18.3719V18.3828V18.3936V18.4045V18.4154V18.4263V18.4371V18.448V18.4589V18.4698V18.4806V18.4915V18.5024V18.5133V18.5241V18.535V18.5459V18.5568V18.5676V18.5785V18.5894V18.6003V18.6111V18.622V18.6329V18.6438V18.6546V18.6655V18.6764V18.6873V18.6981V18.709V18.7199V18.7308V18.7416V18.7525V18.7634V18.7743V18.7851V18.796V18.8069V18.8178V18.8286V18.8395V18.8504V18.8612V18.8721V18.883V18.8939V18.9048V18.9156V18.9265V18.9374V18.9482V18.9591V18.97V18.9809V18.9918V19.0026V19.0135V19.0244V19.0352V19.0461V19.057V19.0679V19.0788V19.0896V19.1005V19.1114V19.1223V19.1331V19.144V19.1549V19.1658V19.1766V19.1875V19.1984V19.2093V19.2201V19.231V19.2419V19.2528V19.2636V19.2745V19.2854V19.2963V19.3071V19.318V19.3289V19.3398V19.3506V19.3615V19.3724V19.3833V19.3941V19.405V19.4159V19.4268V19.4376V19.4485V19.4594V19.4703V19.4811V19.492V19.5029V19.5138V19.5246V19.5355V19.5464V19.5573V19.5681V19.579V19.5899V19.6007V19.6116V19.6225V19.6334V19.6443V19.6551V19.666V19.6769V19.6877V19.6986V19.7095V19.7204V19.7313V19.7421V19.753V19.7639V19.7747V19.7856V19.7965V19.8074V19.8183V19.8291V19.84V19.8509V19.8617V19.8726V19.8835V19.8944V19.9053V19.9161V19.927V19.9379V19.9487V19.9596V19.9705V19.9814V19.9923V20.0031V20.014V20.0249V20.0358V20.0466V20.0575V20.0684V20.0793V20.0901V20.101V20.1119V20.1228V20.1336V20.1445V20.1554V20.1663V20.1771V20.188V20.1989V20.2098V20.2206V20.2315V20.2424V20.2533V20.2641V20.275V20.2859V20.2968V20.3076V20.3185V20.3294V20.3403V20.3511V20.362V20.3729V20.3838V20.3946V20.4055V20.4164V20.4272V20.4381V20.449V20.4599V20.4708V20.4816V20.4925V20.5034V20.5142V20.5251V20.536V20.5469V20.5578V20.5686V20.5795V20.5904V20.6012V20.6121V20.623V20.6339V20.6448V20.6556V20.6665V20.6774V20.6882V20.6991V20.71V20.7209V20.7318V20.7426V20.7535V20.7644V20.7752V20.7861V20.797V20.8079V20.8188V20.8296V20.8405V20.8514V20.8622V20.8731V20.884V20.8949V20.9058V20.9166V20.9275V20.9384V20.9492V20.9601V20.971V20.9819V20.9928V21.0036V21.0145V21.0254V21.0362V21.0471V21.058V21.0689V21.0798V21.0906V21.1015V21.1124V21.1233V21.1341V21.145V21.1559V21.1667V21.1776V21.1885V21.1994V21.2103V21.2211V21.232V21.2429V21.2537V21.2646V21.2755V21.2864V21.2973V21.3081V21.319V21.3299V21.3407V21.3516V21.3625V21.3734V21.3843V21.3951V21.406V21.4169V21.4277V21.4386V21.4495V21.4604V21.4713V21.4821V21.493V21.5039V21.5147V21.5256V21.5365V21.5474V21.5583V21.5691V21.58V21.5909V21.6017V21.6126V21.6235V21.6344V21.6453V21.6561V21.667V21.6779V21.6887V21.6996V21.7105V21.7214V21.7323V21.7431V21.754V21.7649V21.7757V21.7866V21.7975V21.8084V21.8193V21.8301V21.841V21.8519V21.8627V21.8736V21.8845V21.8954V21.9062V21.9171V21.928V21.9389V21.9497V21.9606V21.9715V21.9824V21.9932V22.0041V22.015V22.0259V22.0368V22.0476V22.0585V22.0694V22.0802V22.0911V22.102V22.1129V22.1238V22.1346V22.1455V22.1564V22.1672V22.1781V22.189V22.1999V22.2108V22.2216V22.2325V22.2434V22.2542V22.2651V22.276V22.2869V22.2978V22.3086V22.3195V22.3304V22.3412V22.3521V22.363V22.3739V22.3848V22.3956V22.4065V22.4174V22.4282V22.4391V22.45V22.4609V22.4718V22.4826V22.4935V22.5044V22.5152V22.5261V22.537V22.5479V22.5588V22.5696V22.5805V22.5914V22.6022V22.6131V22.624V22.6349V22.6458V22.6566V22.6675V22.6784V22.6892V22.7001V22.711V22.7219V22.7327V22.7436V22.7545V22.7654V22.7762V22.7871V22.798V22.8089V22.8197V22.8306V22.8415V22.8524V22.8632V22.8741V22.885V22.8959V22.9067V22.9176V22.9285V22.9394V22.9503V22.9611V22.972V22.9829V22.9937V23.0046V23.0155V23.0264V23.0373V23.0481V23.059V23.0699V23.0807V23.0916V23.1025V23.1134V23.1243V23.1351V23.146V23.1569V23.1677V23.1786V23.1895V23.2004V23.2113V23.2221V23.233V23.2439V23.2547V23.2656V23.2765V23.2874V23.2983V23.3091V23.32C3.294 25.1425 3.27801 26.9651 3.24604 28.7876L3.246 28.7876V28.792C3.246 29.469 3.1224 29.9781 2.89909 30.341L2.8953 30.3471L2.89188 30.3535C2.70864 30.6938 2.32589 30.9988 1.68606 31.2437L0.925431 31.4814L0.75 31.5362V31.72V32.728ZM18.2525 18.7019L18.2524 18.702L18.2579 18.7069C19.3305 19.6603 19.902 21.3471 19.902 23.848C19.902 26.4422 19.3157 28.2668 18.1992 29.3832C17.0792 30.5032 15.3626 31.086 13 31.086H10.61V17.186H12.856C15.4249 17.186 17.2018 17.7113 18.2525 18.7019ZM12.616 15.294H10.61V2.642H13.24C15.1208 2.642 16.4475 3.1276 17.2785 4.04757C18.1098 4.96802 18.558 6.61543 18.558 9.064C18.558 11.4086 18.0649 13.0056 17.1432 13.9272C16.2517 14.8188 14.7641 15.294 12.616 15.294Z" fill="#4238B9" stroke="#4238B9" stroke-width="0.5"/>
</svg>
